<?xml version="1.0" encoding="UTF-8"?>
<svg id="Layer_1" xmlns="http://www.w3.org/2000/svg" version="1.1" xmlns:xlink="http://www.w3.org/1999/xlink" viewBox="0 0 550 400">
  <!-- Generator: Adobe Illustrator 29.2.1, SVG Export Plug-In . SVG Version: 2.1.0 Build 116)  -->
  <defs>
    <style>
      .st0 {
        fill: #b75700;
      }

      .st1 {
        fill: #062049;
      }

      .st2 {
        fill: #fff;
      }

      .st3 {
        fill: url(#linear-gradient1);
      }

      .st4 {
        fill: #5d2f00;
      }

      .st5 {
        fill: url(#radial-gradient);
      }

      .st6 {
        fill: url(#radial-gradient5);
      }

      .st7 {
        fill: url(#radial-gradient1);
      }

      .st8 {
        fill: #a15101;
      }

      .st9 {
        fill: url(#radial-gradient7);
      }

      .st10 {
        fill: url(#radial-gradient8);
      }

      .st11 {
        fill: url(#radial-gradient6);
      }

      .st12 {
        fill: url(#radial-gradient2);
      }

      .st13 {
        fill: url(#radial-gradient4);
      }

      .st14 {
        fill: url(#radial-gradient3);
      }

      .st15 {
        fill: #c60;
      }

      .st16 {
        fill: url(#linear-gradient);
      }
    </style>
    <radialGradient id="radial-gradient" cx="275" cy="200" fx="275" fy="200" r="163.2" gradientUnits="userSpaceOnUse">
      <stop offset="0" stop-color="#fde370"/>
      <stop offset=".9" stop-color="#fbb90b"/>
      <stop offset="1" stop-color="#ffa80b"/>
    </radialGradient>
    <linearGradient id="linear-gradient" x1="267" y1="49.5" x2="264.8" y2="199.5" gradientTransform="translate(-9.3 30.1) rotate(-8.2) scale(.9 1.1)" gradientUnits="userSpaceOnUse">
      <stop offset="0" stop-color="#fdf2c2"/>
      <stop offset="1" stop-color="#fbb90b"/>
    </linearGradient>
    <radialGradient id="radial-gradient1" cx="190.7" cy="153.7" fx="190.7" fy="153.7" r="28.3" gradientTransform="translate(90.3 -98.2) rotate(20.8) scale(1 1.2)" gradientUnits="userSpaceOnUse">
      <stop offset="0" stop-color="#fde370"/>
      <stop offset=".9" stop-color="#fbb90b"/>
      <stop offset="1" stop-color="#ed990b"/>
    </radialGradient>
    <radialGradient id="radial-gradient2" cx="282.5" cy="139.1" fx="282.5" fy="139.1" r="31.7" gradientTransform="translate(-23) scale(1.1 1)" xlink:href="#radial-gradient1"/>
    <radialGradient id="radial-gradient3" cx="211.7" cy="146.8" fx="211.7" fy="146.8" r="56.4" gradientUnits="userSpaceOnUse">
      <stop offset=".6" stop-color="#fff"/>
      <stop offset="1" stop-color="#d4a3b0"/>
    </radialGradient>
    <radialGradient id="radial-gradient4" cx="210.6" cy="146.3" fx="210.6" fy="146.3" r="19.6" gradientUnits="userSpaceOnUse">
      <stop offset="0" stop-color="#60dbff"/>
      <stop offset=".4" stop-color="#5fd9fe"/>
      <stop offset=".5" stop-color="#5ed1fc"/>
      <stop offset=".6" stop-color="#5cc5f9"/>
      <stop offset=".7" stop-color="#59b4f5"/>
      <stop offset=".8" stop-color="#559df0"/>
      <stop offset=".9" stop-color="#5181e9"/>
      <stop offset=".9" stop-color="#4b60e1"/>
      <stop offset="1" stop-color="#453ad8"/>
      <stop offset="1" stop-color="#4226d4"/>
    </radialGradient>
    <radialGradient id="radial-gradient5" cx="281.6" cy="140.4" fx="281.6" fy="140.4" r="49.4" xlink:href="#radial-gradient3"/>
    <radialGradient id="radial-gradient6" cx="278.5" cy="140.4" fx="278.5" fy="140.4" r="19.5" xlink:href="#radial-gradient4"/>
    <radialGradient id="radial-gradient7" cx="346.8" cy="148.9" fx="346.8" fy="148.9" r="24.3" gradientTransform="translate(50.5 29.6) scale(.8 .8)" gradientUnits="userSpaceOnUse">
      <stop offset="0" stop-color="#fd9903"/>
      <stop offset="1" stop-color="#fcb101"/>
    </radialGradient>
    <radialGradient id="radial-gradient8" cx="167.5" cy="163" fx="167.5" fy="163" r="24.3" gradientTransform="translate(43.4 32.6) scale(.6 .7)" xlink:href="#radial-gradient7"/>
    <linearGradient id="linear-gradient1" x1="409" y1="238.6" x2="378.4" y2="239.1" gradientTransform="translate(204.5 -141.5) rotate(34.2)" gradientUnits="userSpaceOnUse">
      <stop offset="0" stop-color="#fdf2c2"/>
      <stop offset="1" stop-color="#fbb00b"/>
    </linearGradient>
  </defs>
  <path class="st5" d="M367.9,333.9c35.8-27.2,57.3-63.5,64.5-108.9,7.2-45.4-2.1-86.7-27.7-123.7-25.6-36.9-60.2-58.8-103.7-65.7-43.5-6.9-83.1,3.3-119,30.5-35.8,27.3-57.3,63.6-64.5,109.1-7.2,45.4,2,86.6,27.7,123.6,25.7,37,60.3,58.9,103.7,65.8,43.5,6.9,83.1-3.3,118.9-30.6h0Z"/>
  <path class="st16" d="M357.2,117.3c6.5,45.6-63.7,27-120.2,35.1-56.5,8.1-77.8,39.9-84.3-5.7-6.5-45.6,33.9-89.1,90.4-97.2,56.5-8.1,107.6,22.3,114.1,67.9Z"/>
  <path class="st7" d="M232.2,154.6c-10.9,28.7-34.7,48.3-49.6,42.6-14.9-5.6-26-30.6-15.2-59.3,4.7-12.5,13.6-4.1,29.2-20.8,11.2-12,14.8-28.3,23.2-25.1,14.9,5.6,23.2,33.8,12.3,62.6Z"/>
  <path class="st12" d="M311.1,137.8c14.1,26.3-7.9,57.5-32.4,55.5-20.6-1.7-35.4-24.9-35.4-54.7s12.8-51.9,27.2-52c9,0,13.4,17.7,19.8,25.4,8.3,9.9,14.9,14.7,20.9,25.8Z"/>
  <path class="st14" d="M218,97.4c-.2.3-.4.6-.7.9-13.2,17.7-27.5,28.8-43,33.2,0,0,0,.2-.1.3-.1.4-.3.7-.4,1.1-4.1,10.7-5.7,20.9-4.9,30.3.1,1.7.3,3.3.6,4.9,1.9,10.9,6.6,17.8,14.1,20.7,7.5,2.8,15.5.8,24.1-6.2,8.7-6.9,15.4-16.6,20.2-29.2,4.8-12.6,6.2-24.4,4.3-35.3-.6-3.3-1.4-6.2-2.5-8.8-2.4-5.8-6.2-9.7-11.2-11.7-.1,0-.2,0-.4-.1,0,0-.1,0-.1,0h0Z"/>
  <path class="st13" d="M224.6,152c2.6-5.8,3.3-11.4,2.4-16.7-.9-5.3-3.3-8.7-7.1-10.2-3.8-1.6-8-.9-12.6,2.1-4.5,3-8,7.5-10.6,13.3-2.6,5.8-3.4,11.4-2.5,16.7,1,5.3,3.4,8.7,7.2,10.2,3.9,1.6,8,.9,12.5-2.1,4.6-3,8.1-7.5,10.7-13.3h0Z"/>
  <path class="st1" d="M228.7,135.2c-1-5.9-3.7-9.7-8.1-11.5-4.4-1.9-9.1-1.1-14.2,2.2-4.8,3.2-8.5,7.9-11.2,14-2.7,6.1-3.6,12-2.7,17.6,1.1,5.8,3.8,9.7,8.2,11.6,1.5.6,3.1,1,4.7,1,3,0,6.1-1,9.4-3.2,4.8-3.2,8.7-7.9,11.4-14,2.7-6.1,3.6-12.1,2.6-17.6ZM223,151.4c-2.4,5.5-5.8,9.7-10.1,12.6-4,2.7-7.6,3.3-10.9,2-3.3-1.4-5.3-4.3-6.2-9-.8-4.9,0-10.2,2.4-15.7,2.4-5.5,5.8-9.8,9.9-12.6,2.7-1.8,5.2-2.7,7.5-2.7s2.4.2,3.5.7c3.3,1.3,5.3,4.2,6.1,8.9.9,4.9.2,10.2-2.2,15.7Z"/>
  <path class="st6" d="M258,101.6c-.9,1.3-1.9,2.7-2.8,4.1-5.8,9.9-8.4,21.6-7.6,35,.7,13.5,4.6,24.8,11.5,33.8,6.9,9.2,14.9,13.5,24,13,7.9-.4,14.5-4.4,19.9-12,.5-.7,1.1-1.5,1.6-2.3.2-.4.5-.8.8-1.3,3.8-6.4,6.2-13.5,7.3-21.4,0,0,0,.2,0,.2,0,0,0-.4.2-1l.3-1.3c-1.5-10.8-8.7-21.3-21.5-31.4-12.8-10.1-20.8-18.1-24.1-24-3.5,1.9-6.6,4.7-9.4,8.5h0Z"/>
  <path class="st11" d="M294.6,141.5c.4-6.1-.8-11.5-3.7-16.1-2.8-4.6-6.5-7-10.9-7.3-4.5-.3-8.4,1.6-11.9,5.7-3.4,4.2-5.4,9.3-5.8,15.4-.4,6.2.8,11.5,3.7,16.1,2.8,4.6,6.5,7,11,7.3,4.4.3,8.4-1.6,11.8-5.7,3.5-4.1,5.4-9.3,5.8-15.4h0Z"/>
  <path d="M286.6,142.1c.5-3.5,0-6.7-1.2-9.5-1.3-2.7-3.1-4.2-5.4-4.5s-4.5.6-6.5,2.9c-2,2.3-3.2,5.2-3.7,8.8-.5,3.5-.1,6.7,1.1,9.4,1.3,2.8,3.1,4.3,5.4,4.7,2.3.3,4.5-.7,6.5-3,2-2.3,3.2-5.1,3.7-8.7h0ZM217.5,134c-2-1-4.3-.7-6.9.9-2.5,1.6-4.6,4.1-6.1,7.3-1.5,3.2-2.1,6.3-1.8,9.3.4,3,1.6,5,3.6,6.1,2.1,1,4.4.6,6.9-1,2.5-1.6,4.5-4,6.1-7.2,1.5-3.2,2.2-6.3,1.8-9.3-.4-3-1.6-4.9-3.7-5.9Z"/>
  <path class="st15" d="M274.6,368.2c-8.5,0-17.1-.7-25.9-2.1-43.8-6.9-79-29.3-104.9-66.5-25.8-37.2-35.2-79.1-28-124.8,7.2-45.7,29.1-82.7,65.1-110.2,36-27.4,76.5-37.7,120.3-30.8,43.8,6.9,79,29.3,104.8,66.4,25.8,37.2,35.2,79.2,28,124.9h0c-7.2,45.6-29.1,82.7-65.2,110-28.8,21.9-60.4,33-94.3,33ZM275.4,35.2c-33.2,0-64.2,10.8-92.4,32.2-35.3,26.9-56.7,63.2-63.8,108-7.1,44.8,2.1,85.9,27.4,122.3,25.3,36.4,59.8,58.3,102.6,65.1,42.8,6.8,82.4-3.4,117.6-30.3,35.3-26.8,56.8-63.1,63.9-107.9h0c7.1-44.8-2.2-86-27.5-122.5-25.3-36.4-59.8-58.2-102.6-65-8.6-1.3-17-2-25.3-2ZM432.4,224.9h0,0ZM248.2,87.5c-.5,0-1-.2-1.4-.7-4.9-6.6-8-16.7,5.3-28,.7-.6,1.8-.5,2.4.2.6.7.5,1.8-.2,2.4-9.2,7.8-10.8,15.4-4.8,23.4.6.7.4,1.8-.3,2.4-.3.2-.7.3-1,.3Z"/>
  <path d="M312.7,149.9c-.8,0-1.6-.6-1.7-1.5-1.4-10.3-8.4-20.5-20.8-30.3-13.1-10.4-21.1-18.4-24.6-24.5-.5-.8-.2-1.9.6-2.3.8-.5,1.9-.2,2.3.6,3.2,5.7,11.2,13.6,23.7,23.5,13.1,10.4,20.5,21.3,22.1,32.5.1.9-.5,1.8-1.4,1.9,0,0-.2,0-.2,0ZM174.5,133.2c-.2,0-.4,0-.6-.1-.9-.3-1.3-1.3-1-2.2v-.3c.3-.5.7-.9,1.2-1,15-4.3,29.2-15.2,42.1-32.6l.7-.9c.4-.6,1.3-.9,2.1-.5h0s.3.1.3.1c.9.3,1.3,1.3,1,2.2-.2.6-.7,1-1.3,1.1h0c-13.2,17.8-27.7,29.1-43.2,33.7-.3.4-.8.6-1.3.6ZM217.7,98.7s0,0,0,0c0,0,0,0,0,0Z"/>
  <path class="st1" d="M277.9,164.5c-.4,0-.7,0-1.1,0-5-.3-9.1-3.1-12.3-8.1-3-4.8-4.3-10.6-3.9-17.1.5-6.5,2.6-12,6.2-16.4,3.8-4.6,8.3-6.7,13.3-6.4,5,.4,9.1,3.1,12.2,8.1,3.1,4.9,4.4,10.6,3.9,17.1-.4,6.5-2.5,12-6.2,16.4-3.5,4.2-7.6,6.4-12.2,6.4ZM279.2,119.8c-3.6,0-6.8,1.7-9.7,5.2-3.2,3.8-5,8.7-5.4,14.5-.4,5.8.8,10.8,3.4,15,2.6,4.2,5.7,6.3,9.6,6.6,3.9.3,7.3-1.4,10.4-5.1,3.2-3.8,5.1-8.7,5.4-14.5h0c.4-5.8-.7-10.8-3.4-15.1-2.6-4.1-5.7-6.3-9.6-6.6-.3,0-.5,0-.8,0Z"/>
  <path class="st8" d="M190.5,191.4c-2.4,0-4.8-.4-7.2-1.3-8-3.1-13.1-10.5-15.1-22-.3-1.6-.5-3.3-.6-5.1-.8-9.7.9-20.1,5-31l.4-1.1c.4-.9,1.3-1.3,2.2-.9.9.4,1.3,1.3.9,2.2l-.4,1c-3.9,10.4-5.6,20.4-4.8,29.5.1,1.6.3,3.2.6,4.7,1.8,10.4,6.1,16.7,13,19.4,6.9,2.6,14.3.7,22.5-5.9,8.4-6.6,15-16.2,19.6-28.5,4.6-12.3,6.1-23.8,4.2-34.4-.5-3.2-1.3-6-2.4-8.4-2.3-5.4-5.6-8.9-10.2-10.8-.9-.3-1.3-1.3-.9-2.2.3-.9,1.3-1.3,2.2-.9,5.4,2.2,9.5,6.4,12.1,12.6,1.1,2.7,2,5.7,2.6,9.1,2,11.2.5,23.3-4.4,36.2-4.9,12.8-11.8,22.9-20.7,29.9-6.4,5.2-12.7,7.8-18.6,7.8ZM310.8,149.2l.2-1.3c.2-.9,1.1-1.5,2-1.4.9.2,1.5,1.1,1.4,2l-.2,1.4s0,0,0,0v.7c-1.2,8.1-3.7,15.5-7.6,22-.3.4-.5.9-.7,1.3-.6.9-1.2,1.7-1.7,2.5-5.7,7.9-12.9,12.2-21.2,12.7-.5,0-1,0-1.5,0-9,0-17-4.6-23.9-13.7-7.1-9.3-11.1-21-11.8-34.8-.8-13.7,1.9-25.8,7.8-36,.9-1.5,1.9-3,2.9-4.3,3-4,6.3-7,10-9,.8-.5,1.9-.1,2.3.7.5.8.1,1.9-.7,2.3-3.2,1.8-6.2,4.5-8.9,8-.9,1.2-1.8,2.6-2.7,4-5.6,9.6-8.1,21-7.4,34.1.7,13.1,4.5,24.1,11.1,32.9,6.6,8.8,14,12.8,22.5,12.3,7.4-.4,13.5-4.1,18.7-11.3.5-.7,1-1.5,1.6-2.3.2-.3.4-.8.7-1.2,3.6-6,5.9-12.8,7-20.2l.2-1.4Z"/>
  <path class="st2" d="M282.7,136.3c1.8-3,2.4-6.1,2-9.2-.4-3.1-1.8-5.3-4.1-6.7-2.3-1.4-5-1.4-7.9-.3-2.9,1.2-5.2,3.3-6.9,6.3-1.8,3-2.4,6.1-2,9.2.4,3.1,1.8,5.3,4.2,6.7,2.3,1.4,4.9,1.4,7.8.3,2.9-1.2,5.2-3.3,7-6.3Z"/>
  <path class="st2" d="M218.2,139c1.3-3.2,1.5-6.3.8-9.2-.7-2.9-2.3-4.8-4.6-5.8s-4.8-.6-7.3,1c-2.5,1.6-4.4,4-5.7,7.2-1.3,3.2-1.6,6.3-.8,9.2.8,2.9,2.3,4.8,4.6,5.8,2.3.9,4.8.6,7.3-1,2.6-1.6,4.5-4,5.8-7.2Z"/>
  <path class="st4" d="M168.1,135.7c-.7,0-1.3-.4-1.6-1.1-.3-.7,0-1.6.7-2,2.6-1.7,6.9-4.4,12.9-8,21.1-15.4,33.5-32.7,36.8-51.3,0-.4.3-.8.7-1.1.4-.3.8-.4,1.3-.3,4.2.8,7.1,2.5,8.6,4.9,1.4,2.2,1.6,5.1.6,8.4-1.1,3.5-3.3,7.6-6.8,12.5l-1.3,1.7c-13.6,18.5-28.6,30.2-44.6,34.7-2.3.6-4.6,1.1-6.9,1.5,0,0-.2,0-.3,0Z"/>
  <path class="st4" d="M312.9,151.3c-.8,0-1.5-.6-1.7-1.4-2.1-11.8-11-23.9-26.6-36.1l-2.5-1.9s0,0,0,0c-7.1-5.8-12.6-11.4-16.1-16.8-2.7-4.1-4.5-8.2-5.1-12.1-.6-5,0-8.4,2.2-10.6,1.8-1.9,4.6-2.7,8.2-2.4.8,0,1.5.7,1.5,1.5.5,6.4,2.9,12.9,7.1,19.4,4.3,6.7,8,11.7,11,15,3.1,3.4,7.1,8.2,11.8,14.3,4.9,6.2,8.8,15.4,11.8,27.3,0,.2.1.4.1.6.1,1.1,0,1.5,0,1.7-.3.8-.8,1.4-1.6,1.4,0,0,0,0-.1,0Z"/>
  <path class="st2" d="M219.6,152.1c-.3-1-.9-1.8-1.8-2.3-.9-.5-1.9-.7-2.9-.4-1,.3-1.8.9-2.3,1.8-.5.9-.7,1.9-.4,2.9s.9,1.8,1.8,2.3c.9.5,1.9.7,2.9.4,1-.3,1.8-.9,2.3-1.8s.7-1.9.4-2.9Z"/>
  <path class="st2" d="M287.7,148c-.3-1-.9-1.8-1.8-2.3-.9-.5-1.9-.7-2.9-.4-1,.3-1.8.9-2.3,1.8-.5.9-.7,1.9-.4,2.9.3,1,.9,1.8,1.8,2.3.9.5,1.9.7,2.9.4,1-.3,1.8-.9,2.3-1.8.5-.9.7-1.9.4-2.9Z"/>
  <ellipse class="st9" cx="345.3" cy="148.7" rx="24.6" ry="14.8"/>
  <ellipse class="st10" cx="143.1" cy="154.4" rx="17.3" ry="13.8"/>
  <path class="st3" d="M399.8,293c-24.9,33.6-68.2,69.1-78.5,56.5-2.1-2.6,36.4-35.4,59.9-70,23.5-34.6,33.7-88.8,42.7-101.5,9.4-13.3,16.3,60.4-24.1,115Z"/>
  <path class="st0" d="M206.7,257.3c-.1,0-.2,0-.3,0-.9-.2-1.5-1.1-1.4-2,7.3-38.3,16-58.1,26.5-60.4,10.6-2.4,24.8,10.9,43.3,40.7.5.8.3,1.8-.5,2.3-.8.5-1.8.3-2.3-.5-21.7-34.8-33.6-40.5-39.7-39.1-6.2,1.4-15.3,12.5-23.9,57.7-.2.8-.9,1.4-1.7,1.4Z"/>
</svg>